# Blender 4.2.3 LTS
# www.blender.org
# mtllib torii-gate.mtl
o torii
v 4.589427 7.171855 -0.266387
v 4.393458 6.811135 -0.266387
v 4.589427 7.171855 0.266387
v 4.393458 6.811135 0.266387
v 0.878692 6.714119 0.266387
v 1.757383 6.723429 0.266387
v 2.636075 6.740092 0.266387
v 3.514766 6.766693 0.266387
v 0.917885 7.060733 -0.266387
v 1.835771 7.070904 -0.266387
v 2.753656 7.089243 -0.266387
v 3.671542 7.119030 -0.266387
v 3.514766 6.766693 -0.266387
v 2.636075 6.740092 -0.266387
v 1.757383 6.723429 -0.266387
v 0.878691 6.714119 -0.266387
v 3.671542 7.119030 0.266387
v 2.753656 7.089243 0.266387
v 1.835771 7.070904 0.266387
v 0.917885 7.060733 0.266387
v 5.085976 7.708122 -0.266387
v 4.848487 7.111135 -0.266387
v 5.085976 7.708122 0.266387
v 4.848487 7.111135 0.266387
v 0.589067 7.014120 0.266387
v 1.653922 7.023429 0.266387
v 2.718777 7.040092 0.266387
v 3.783632 7.066693 0.266387
v 0.636564 7.597000 -0.266387
v 1.748917 7.607172 -0.266387
v 2.861270 7.625510 -0.266387
v 3.973623 7.655298 -0.266387
v 3.783632 7.066693 -0.266387
v 2.718776 7.040092 -0.266387
v 1.653921 7.023429 -0.266387
v 0.589066 7.014120 -0.266387
v 3.973623 7.655298 0.266387
v 2.861270 7.625510 0.266387
v 1.748917 7.607172 0.266387
v 0.636564 7.597000 0.266387
v 0.878691 6.107893 -0.266387
v 0.878692 6.107893 0.266387
v 1.757383 0.081828 0.266387
v 2.636075 0.081828 0.266387
v 2.636075 0.081828 -0.266387
v 1.757383 0.081828 -0.266387
v -4.269531 5.642989 0.438387
v -4.269531 6.107893 0.438387
v -4.269531 5.642989 -0.438387
v -4.269531 6.107893 -0.438387
v 4.269531 5.642989 0.438387
v 4.269531 6.107893 0.438387
v 4.269531 5.642989 -0.438387
v 4.269531 6.107893 -0.438387
v 2.636234 5.956657 0.267081
v 2.636234 6.113285 0.267081
v 2.636234 5.956657 -0.267081
v 2.636234 6.113285 -0.267081
v 3.065652 5.956657 0.267081
v 3.065652 6.259130 0.267081
v 3.065652 5.956657 -0.267081
v 3.065652 6.259130 -0.267081
v 1.605985 0.034458 0.590743
v 1.680130 2.034458 0.516599
v 1.605985 0.034458 -0.590743
v 1.680130 2.034458 -0.516599
v 2.787472 0.034458 0.590743
v 2.713328 2.034458 0.516599
v 2.787472 0.034458 -0.590743
v 2.713328 2.034458 -0.516599
v -4.589427 7.171855 -0.266387
v -4.393458 6.811135 -0.266387
v -4.589427 7.171855 0.266387
v -4.393458 6.811135 0.266387
v 0.000000 6.711114 -0.266387
v 0.000000 7.057459 0.266387
v 0.000000 6.711114 0.266387
v 0.000000 7.057459 -0.266387
v -0.878692 6.714119 0.266387
v -1.757383 6.723429 0.266387
v -2.636075 6.740092 0.266387
v -3.514766 6.766693 0.266387
v -0.917885 7.060733 -0.266387
v -1.835771 7.070904 -0.266387
v -2.753656 7.089243 -0.266387
v -3.671542 7.119030 -0.266387
v -3.514766 6.766693 -0.266387
v -2.636075 6.740092 -0.266387
v -1.757383 6.723429 -0.266387
v -0.878691 6.714119 -0.266387
v -3.671542 7.119030 0.266387
v -2.753656 7.089243 0.266387
v -1.835771 7.070904 0.266387
v -0.917885 7.060733 0.266387
v -5.085976 7.708122 -0.266387
v -4.848487 7.111135 -0.266387
v -5.085976 7.708122 0.266387
v -4.848487 7.111135 0.266387
v 0.000000 7.011115 -0.266387
v 0.000000 7.593726 0.266387
v 0.000000 7.011115 0.266387
v 0.000000 7.593726 -0.266387
v -0.589067 7.014120 0.266387
v -1.653922 7.023429 0.266387
v -2.718777 7.040092 0.266387
v -3.783632 7.066693 0.266387
v -0.636564 7.597000 -0.266387
v -1.748917 7.607172 -0.266387
v -2.861270 7.625510 -0.266387
v -3.973623 7.655298 -0.266387
v -3.783632 7.066693 -0.266387
v -2.718776 7.040092 -0.266387
v -1.653921 7.023429 -0.266387
v -0.589066 7.014120 -0.266387
v -3.973623 7.655298 0.266387
v -2.861270 7.625510 0.266387
v -1.748917 7.607172 0.266387
v -0.636564 7.597000 0.266387
v -0.878691 6.107893 -0.266387
v 0.000000 6.107893 -0.266387
v 0.000000 6.107893 0.266387
v -0.878692 6.107893 0.266387
v -1.757383 0.081828 0.266387
v -2.636075 0.081828 0.266387
v -2.636075 0.081828 -0.266387
v -1.757383 0.081828 -0.266387
v 4.269531 5.642989 0.438387
v 4.269531 6.107893 0.438387
v 4.269531 5.642989 -0.438387
v 4.269531 6.107893 -0.438387
v -4.269531 5.642989 0.438387
v -4.269531 6.107893 0.438387
v -4.269531 5.642989 -0.438387
v -4.269531 6.107893 -0.438387
v -2.636234 5.956657 0.267081
v -2.636234 6.113285 0.267081
v -2.636234 5.956657 -0.267081
v -2.636234 6.113285 -0.267081
v -3.065652 5.956657 0.267081
v -3.065652 6.259130 0.267081
v -3.065652 5.956657 -0.267081
v -3.065652 6.259130 -0.267081
v -1.605985 0.034458 0.590743
v -1.680130 2.034458 0.516599
v -1.605985 0.034458 -0.590743
v -1.680130 2.034458 -0.516599
v -2.787472 0.034458 0.590743
v -2.713328 2.034458 0.516599
v -2.787472 0.034458 -0.590743
v -2.713328 2.034458 -0.516599
vn 0.0505 -0.9987 -0.0000
vn 0.8787 -0.4774 -0.0000
vn -0.0000 -0.0000 -1.0000
vn -0.0000 -0.0000 1.0000
vn -0.0036 1.0000 -0.0000
vn -0.0575 0.9983 -0.0000
vn -0.0324 0.9995 -0.0000
vn -0.0200 0.9998 -0.0000
vn -0.0111 0.9999 -0.0000
vn -1.0000 -0.0000 -0.0000
vn 0.0106 -0.9999 -0.0000
vn 0.0303 -0.9995 -0.0000
vn 0.0417 -0.9991 -0.0000
vn 0.9292 -0.3696 -0.0000
vn -0.0051 1.0000 -0.0000
vn -0.0474 0.9989 -0.0000
vn -0.0268 0.9996 -0.0000
vn -0.0165 0.9999 -0.0000
vn -0.0091 1.0000 -0.0000
vn 0.0051 -1.0000 -0.0000
vn 0.0087 -1.0000 -0.0000
vn 0.0156 -0.9999 -0.0000
vn 0.0250 -0.9997 -0.0000
vn -0.0000 -1.0000 -0.0000
vn 1.0000 -0.0000 -0.0000
vn -0.0000 1.0000 -0.0000
vn -0.3216 0.9469 -0.0000
vn -0.9993 0.0370 -0.0000
vn -0.0000 0.0370 -0.9993
vn 0.9993 0.0370 -0.0000
vn -0.0000 0.0370 0.9993
vn -0.0505 -0.9987 -0.0000
vn -0.8787 -0.4774 -0.0000
vn 0.0036 1.0000 -0.0000
vn 0.0575 0.9983 -0.0000
vn 0.0324 0.9995 -0.0000
vn 0.0200 0.9998 -0.0000
vn 0.0111 0.9999 -0.0000
vn -0.0106 -0.9999 -0.0000
vn -0.0303 -0.9995 -0.0000
vn -0.0417 -0.9991 -0.0000
vn -0.9292 -0.3696 -0.0000
vn 0.0051 1.0000 -0.0000
vn 0.0474 0.9989 -0.0000
vn 0.0268 0.9996 -0.0000
vn 0.0165 0.9999 -0.0000
vn 0.0091 1.0000 -0.0000
vn -0.0051 -1.0000 -0.0000
vn -0.0087 -1.0000 -0.0000
vn -0.0156 -0.9999 -0.0000
vn -0.0250 -0.9997 -0.0000
vn 0.3216 0.9469 -0.0000
vt 0.674735 0.537520
vt 0.674735 0.494437
vt 0.701585 0.494437
vt 0.701585 0.537520
vt 0.722478 0.517857
vt 0.703641 0.517857
vt 0.703641 0.491735
vt 0.722478 0.491735
vt 0.036498 0.072945
vt 0.018741 0.065258
vt 0.016079 0.020252
vt 0.034258 0.029861
vt 0.428615 0.288363
vt 0.411147 0.290285
vt 0.411312 0.245279
vt 0.428766 0.245279
vt 0.913689 0.656640
vt 0.913689 0.701645
vt 0.886839 0.701645
vt 0.886839 0.656640
vt 0.913689 0.476618
vt 0.913689 0.521623
vt 0.886839 0.521623
vt 0.886839 0.476618
vt 0.913689 0.566629
vt 0.886839 0.566629
vt 0.913689 0.611634
vt 0.886839 0.611634
vt 0.423726 0.460698
vt 0.405547 0.470306
vt 0.408209 0.425301
vt 0.425965 0.417614
vt 0.409710 0.380296
vt 0.427306 0.374530
vt 0.410634 0.335290
vt 0.428146 0.331447
vt 0.039299 0.245279
vt 0.021844 0.245280
vt 0.021679 0.200274
vt 0.039147 0.202196
vt 0.021166 0.155269
vt 0.038678 0.159112
vt 0.020242 0.110263
vt 0.037838 0.116028
vt 0.218010 0.829995
vt 0.191160 0.829995
vt 0.191160 0.505176
vt 0.218009 0.505176
vt 0.363203 0.689441
vt 0.363203 0.646357
vt 0.390053 0.646357
vt 0.390053 0.689441
vt 0.459166 0.245279
vt 0.459166 0.288363
vt 0.674735 0.580604
vt 0.701585 0.580604
vt 0.884423 0.901008
vt 0.884423 0.953219
vt 0.857573 0.953219
vt 0.857573 0.901008
vt 0.247276 0.654027
vt 0.247276 0.684055
vt 0.220426 0.684055
vt 0.220426 0.654027
vt 0.927806 0.457335
vt 0.957469 0.466650
vt 0.960131 0.521191
vt 0.930046 0.509546
vt 0.963444 0.242934
vt 0.992819 0.240605
vt 0.992654 0.271817
vt 0.963293 0.271817
vt 0.828307 0.759395
vt 0.828307 0.728183
vt 0.855156 0.728183
vt 0.855156 0.759395
vt 0.828307 0.977556
vt 0.828307 0.923016
vt 0.855156 0.923016
vt 0.855156 0.977556
vt 0.828307 0.868475
vt 0.855156 0.868475
vt 0.828307 0.813935
vt 0.855156 0.813935
vt 0.968333 0.034088
vt 0.998419 0.022444
vt 0.995757 0.076984
vt 0.966094 0.086300
vt 0.994256 0.131525
vt 0.964753 0.138511
vt 0.993332 0.186065
vt 0.963913 0.190723
vt 0.925005 0.271817
vt 0.954366 0.271817
vt 0.954531 0.303029
vt 0.925156 0.300700
vt 0.955044 0.357570
vt 0.925626 0.352912
vt 0.955968 0.412110
vt 0.926465 0.405123
vt 0.884423 0.715490
vt 0.884423 0.744373
vt 0.857573 0.744373
vt 0.857573 0.715490
vt 0.884423 0.796585
vt 0.857573 0.796585
vt 0.884423 0.848796
vt 0.857573 0.848796
vt 0.360787 0.644419
vt 0.360787 0.687502
vt 0.333937 0.687502
vt 0.333937 0.644419
vt 0.392470 0.642480
vt 0.392470 0.599396
vt 0.419320 0.599396
vt 0.419320 0.642480
vt 0.069698 0.202196
vt 0.069698 0.245279
vt 0.373389 0.116028
vt 0.373389 0.159112
vt 0.130210 0.830846
vt 0.103361 0.830846
vt 0.103361 0.505212
vt 0.130210 0.505212
vt 0.571783 0.691019
vt 0.544933 0.691019
vt 0.544933 0.661371
vt 0.571783 0.661371
vt 0.762856 0.331447
vt 0.762856 0.374530
vt 0.474216 0.689240
vt 0.450846 0.689240
vt 0.450846 0.646251
vt 0.474216 0.646251
vt 0.077669 0.509400
vt 0.101098 0.509400
vt 0.101098 0.928084
vt 0.077669 0.928084
vt 0.441156 0.689343
vt 0.417786 0.689343
vt 0.417786 0.646353
vt 0.441156 0.646353
vt 0.001054 0.509400
vt 0.024484 0.509400
vt 0.024484 0.928084
vt 0.001054 0.928084
vt 0.877250 0.437525
vt 0.877250 0.018841
vt 0.921436 0.018841
vt 0.921436 0.437525
vt 0.825110 0.475206
vt 0.825110 0.893890
vt 0.780924 0.893890
vt 0.780924 0.475206
vt 0.672517 0.687406
vt 0.664644 0.687406
vt 0.664644 0.661215
vt 0.672517 0.661215
vt 0.718723 0.621081
vt 0.710829 0.621081
vt 0.703479 0.600026
vt 0.718723 0.600026
vt 0.718682 0.574950
vt 0.703478 0.574950
vt 0.703478 0.548759
vt 0.718682 0.548759
vt 0.718723 0.666981
vt 0.703479 0.666981
vt 0.710829 0.645926
vt 0.718723 0.645926
vt 0.573965 0.661215
vt 0.595606 0.661215
vt 0.595606 0.687406
vt 0.573965 0.687406
vt 0.642783 0.687406
vt 0.621142 0.687406
vt 0.621142 0.661215
vt 0.642783 0.661215
vt 0.481503 0.592503
vt 0.485239 0.494949
vt 0.537309 0.494949
vt 0.541045 0.592503
vt 0.221897 0.593044
vt 0.225634 0.494972
vt 0.277703 0.494972
vt 0.281440 0.593044
vt 0.611305 0.592503
vt 0.615042 0.494949
vt 0.667111 0.494949
vt 0.670848 0.592503
vt 0.416601 0.593044
vt 0.420338 0.494972
vt 0.472407 0.494972
vt 0.476144 0.593044
vt 0.611305 0.657430
vt 0.611305 0.599500
vt 0.670848 0.599500
vt 0.670848 0.657430
vt 0.330386 0.599737
vt 0.330386 0.650396
vt 0.278316 0.650396
vt 0.278316 0.599737
vt 0.674735 0.631443
vt 0.701585 0.631443
vt 0.701585 0.674526
vt 0.674735 0.674526
vt 0.663442 0.661212
vt 0.663442 0.687335
vt 0.644605 0.687335
vt 0.644605 0.661212
vt 0.036498 0.417614
vt 0.034258 0.460698
vt 0.016079 0.470307
vt 0.018741 0.425301
vt 0.428615 0.202196
vt 0.411147 0.200274
vt 0.913689 0.746650
vt 0.886839 0.746650
vt 0.913689 0.926672
vt 0.886839 0.926672
vt 0.886839 0.881667
vt 0.913689 0.881667
vt 0.886839 0.836661
vt 0.913689 0.836661
vt 0.886839 0.791656
vt 0.913689 0.791656
vt 0.423726 0.029861
vt 0.425965 0.072945
vt 0.408209 0.065258
vt 0.405547 0.020252
vt 0.427306 0.116028
vt 0.409710 0.110263
vt 0.428146 0.159112
vt 0.410634 0.155269
vt 0.039147 0.288363
vt 0.021679 0.290285
vt 0.038678 0.331447
vt 0.021167 0.335290
vt 0.037838 0.374531
vt 0.020242 0.380296
vt 0.161893 0.829994
vt 0.161893 0.505176
vt 0.188743 0.505176
vt 0.188743 0.829994
vt 0.363203 0.599396
vt 0.390053 0.599396
vt 0.390053 0.642480
vt 0.363203 0.642480
vt 0.459166 0.202196
vt 0.674735 0.588359
vt 0.701585 0.588359
vt 0.884423 0.529973
vt 0.857573 0.529973
vt 0.857573 0.477761
vt 0.884423 0.477761
vt 0.276542 0.684055
vt 0.249692 0.684055
vt 0.249692 0.654027
vt 0.276542 0.654027
vt 0.927806 0.086300
vt 0.930046 0.034088
vt 0.960131 0.022444
vt 0.957469 0.076984
vt 0.963444 0.300700
vt 0.992819 0.303029
vt 0.828307 0.696971
vt 0.855156 0.696971
vt 0.828307 0.478809
vt 0.855156 0.478809
vt 0.855156 0.533350
vt 0.828307 0.533350
vt 0.855156 0.587890
vt 0.828307 0.587890
vt 0.855156 0.642431
vt 0.828307 0.642431
vt 0.968333 0.509546
vt 0.966094 0.457335
vt 0.995757 0.466650
vt 0.998419 0.521191
vt 0.964753 0.405123
vt 0.994256 0.412110
vt 0.963913 0.352912
vt 0.993332 0.357569
vt 0.925156 0.242934
vt 0.954531 0.240606
vt 0.925626 0.190723
vt 0.955044 0.186065
vt 0.926465 0.138511
vt 0.955968 0.131525
vt 0.857573 0.686607
vt 0.884423 0.686607
vt 0.857573 0.634396
vt 0.884423 0.634396
vt 0.857573 0.582184
vt 0.884423 0.582184
vt 0.333937 0.601335
vt 0.360787 0.601335
vt 0.421736 0.599396
vt 0.448586 0.599396
vt 0.448586 0.642480
vt 0.421736 0.642480
vt 0.069698 0.288363
vt 0.373389 0.331447
vt 0.373389 0.374530
vt 0.132627 0.830846
vt 0.132627 0.505212
vt 0.159477 0.505212
vt 0.159477 0.830846
vt 0.278959 0.683659
vt 0.278959 0.654010
vt 0.305808 0.654010
vt 0.305808 0.683659
vt 0.762856 0.116028
vt 0.762856 0.159112
vt 0.415683 0.646353
vt 0.415683 0.689343
vt 0.392313 0.689343
vt 0.392313 0.646353
vt 0.052131 0.928084
vt 0.052131 0.509400
vt 0.075560 0.509400
vt 0.075560 0.928084
vt 0.474216 0.599392
vt 0.474216 0.642382
vt 0.450846 0.642382
vt 0.450846 0.599392
vt 0.026593 0.928084
vt 0.026592 0.509400
vt 0.050022 0.509400
vt 0.050022 0.928084
vt 0.780924 0.018841
vt 0.825110 0.018841
vt 0.825110 0.437525
vt 0.780924 0.437525
vt 0.873273 0.437525
vt 0.829087 0.437525
vt 0.829087 0.018841
vt 0.873273 0.018841
vt 0.711021 0.669107
vt 0.711021 0.695298
vt 0.703148 0.695298
vt 0.703148 0.669107
vt 0.718723 0.577076
vt 0.718723 0.598131
vt 0.703479 0.598131
vt 0.710829 0.577076
vt 0.718682 0.520211
vt 0.718682 0.546402
vt 0.703478 0.546402
vt 0.703478 0.520211
vt 0.718723 0.622976
vt 0.718723 0.644031
vt 0.710829 0.644031
vt 0.703479 0.622976
vt 0.619194 0.661215
vt 0.619194 0.687406
vt 0.597553 0.687406
vt 0.597553 0.661215
vt 0.307991 0.680046
vt 0.307991 0.653855
vt 0.329632 0.653855
vt 0.329632 0.680046
vt 0.541045 0.698837
vt 0.481503 0.698837
vt 0.485239 0.601283
vt 0.537308 0.601283
vt 0.346341 0.593044
vt 0.286799 0.593044
vt 0.290535 0.494972
vt 0.342604 0.494972
vt 0.605946 0.592503
vt 0.546404 0.592503
vt 0.550141 0.494949
vt 0.602210 0.494949
vt 0.411242 0.593044
vt 0.351700 0.593044
vt 0.355437 0.494972
vt 0.407506 0.494972
vt 0.546404 0.599500
vt 0.605946 0.599500
vt 0.605946 0.657430
vt 0.546404 0.657430
vt 0.273630 0.650396
vt 0.221561 0.650396
vt 0.221561 0.599737
vt 0.273630 0.599737
s 0
usemtl red
f 13/1/1 2/2/1 4/3/1 8/4/1
f 2/5/2 1/6/2 3/7/2 4/8/2
f 13/9/3 12/10/3 1/11/3 2/12/3
f 5/13/4 20/14/4 76/15/4 77/16/4
f 9/17/5 78/18/5 76/19/5 20/20/5
f 1/21/6 12/22/6 17/23/6 3/24/6
f 12/22/7 11/25/7 18/26/7 17/23/7
f 11/25/8 10/27/8 19/28/8 18/26/8
f 10/27/9 9/17/9 20/20/9 19/28/9
f 4/29/4 3/30/4 17/31/4 8/32/4
f 8/32/4 17/31/4 18/33/4 7/34/4
f 7/34/4 18/33/4 19/35/4 6/36/4
f 6/36/4 19/35/4 20/14/4 5/13/4
f 75/37/3 78/38/3 9/39/3 16/40/3
f 16/40/3 9/39/3 10/41/3 15/42/3
f 15/42/3 10/41/3 11/43/3 14/44/3
f 14/44/3 11/43/3 12/10/3 13/9/3
f 6/45/10 15/46/10 46/47/10 43/48/10
f 16/49/11 15/50/11 6/51/11 5/52/11
f 5/13/4 77/16/4 121/53/4 42/54/4
f 14/55/12 13/1/12 8/4/12 7/56/12
f 120/109/24 41/110/24 42/111/24 121/112/24
f 46/113/24 45/114/24 44/115/24 43/116/24
f 75/37/3 16/40/3 41/117/3 120/118/3
f 15/42/3 14/44/3 45/119/3 46/120/3
f 14/121/25 7/122/25 44/123/25 45/124/25
f 16/125/25 5/126/25 42/127/25 41/128/25
f 7/34/4 6/36/4 43/129/4 44/130/4
f 47/131/10 48/132/10 50/133/10 49/134/10
f 49/135/3 50/136/3 54/137/3 53/138/3
f 53/139/25 54/140/25 52/141/25 51/142/25
f 51/143/4 52/144/4 48/145/4 47/146/4
f 49/147/24 53/148/24 51/149/24 47/150/24
f 54/151/26 50/152/26 48/153/26 52/154/26
f 55/155/10 56/156/10 58/157/10 57/158/10
f 57/159/3 58/160/3 62/161/3 61/162/3
f 61/163/25 62/164/25 60/165/25 59/166/25
f 59/167/4 60/168/4 56/169/4 55/170/4
f 57/171/24 61/172/24 59/173/24 55/174/24
f 62/175/27 58/176/27 56/177/27 60/178/27
f 87/203/32 82/204/32 74/205/32 72/206/32
f 72/207/33 74/208/33 73/209/33 71/210/33
f 87/211/3 72/212/3 71/213/3 86/214/3
f 79/215/4 77/16/4 76/15/4 94/216/4
f 83/217/34 94/218/34 76/19/34 78/18/34
f 71/219/35 73/220/35 91/221/35 86/222/35
f 86/222/36 91/221/36 92/223/36 85/224/36
f 85/224/37 92/223/37 93/225/37 84/226/37
f 84/226/38 93/225/38 94/218/38 83/217/38
f 74/227/4 82/228/4 91/229/4 73/230/4
f 82/228/4 81/231/4 92/232/4 91/229/4
f 81/231/4 80/233/4 93/234/4 92/232/4
f 80/233/4 79/215/4 94/216/4 93/234/4
f 75/37/3 90/235/3 83/236/3 78/38/3
f 90/235/3 89/237/3 84/238/3 83/236/3
f 89/237/3 88/239/3 85/240/3 84/238/3
f 88/239/3 87/211/3 86/214/3 85/240/3
f 80/241/25 123/242/25 126/243/25 89/244/25
f 90/245/39 79/246/39 80/247/39 89/248/39
f 79/215/4 122/249/4 121/53/4 77/16/4
f 88/250/40 81/251/40 82/204/40 87/203/40
f 120/109/24 121/112/24 122/296/24 119/297/24
f 126/298/24 123/299/24 124/300/24 125/301/24
f 75/37/3 120/118/3 119/302/3 90/235/3
f 89/237/3 126/303/3 125/304/3 88/239/3
f 88/305/10 125/306/10 124/307/10 81/308/10
f 90/309/10 119/310/10 122/311/10 79/312/10
f 81/231/4 124/313/4 123/314/4 80/233/4
f 127/315/25 129/316/25 130/317/25 128/318/25
f 129/319/3 133/320/3 134/321/3 130/322/3
f 133/323/10 131/324/10 132/325/10 134/326/10
f 131/327/4 127/328/4 128/329/4 132/330/4
f 129/331/24 127/332/24 131/333/24 133/334/24
f 134/335/26 132/336/26 128/337/26 130/338/26
f 135/339/25 137/340/25 138/341/25 136/342/25
f 137/343/3 141/344/3 142/345/3 138/346/3
f 141/347/10 139/348/10 140/349/10 142/350/10
f 139/351/4 135/352/4 136/353/4 140/354/4
f 137/355/24 135/356/24 139/357/24 141/358/24
f 142/359/52 140/360/52 136/361/52 138/362/52
usemtl black
f 33/57/13 22/58/13 24/59/13 28/60/13
f 22/61/14 21/62/14 23/63/14 24/64/14
f 33/65/3 32/66/3 21/67/3 22/68/3
f 25/69/4 40/70/4 100/71/4 101/72/4
f 29/73/15 102/74/15 100/75/15 40/76/15
f 21/77/16 32/78/16 37/79/16 23/80/16
f 32/78/17 31/81/17 38/82/17 37/79/17
f 31/81/18 30/83/18 39/84/18 38/82/18
f 30/83/19 29/73/19 40/76/19 39/84/19
f 24/85/4 23/86/4 37/87/4 28/88/4
f 28/88/4 37/87/4 38/89/4 27/90/4
f 27/90/4 38/89/4 39/91/4 26/92/4
f 26/92/4 39/91/4 40/70/4 25/69/4
f 99/93/3 102/94/3 29/95/3 36/96/3
f 36/96/3 29/95/3 30/97/3 35/98/3
f 35/98/3 30/97/3 31/99/3 34/100/3
f 34/100/3 31/99/3 32/66/3 33/65/3
f 99/101/20 36/102/20 25/103/20 101/104/20
f 36/102/21 35/105/21 26/106/21 25/103/21
f 35/105/22 34/107/22 27/108/22 26/106/22
f 34/107/23 33/57/23 28/60/23 27/108/23
f 63/179/28 64/180/28 66/181/28 65/182/28
f 65/183/29 66/184/29 70/185/29 69/186/29
f 69/187/30 70/188/30 68/189/30 67/190/30
f 67/191/31 68/192/31 64/193/31 63/194/31
f 65/195/24 69/196/24 67/197/24 63/198/24
f 70/199/26 66/200/26 64/201/26 68/202/26
f 111/252/41 106/253/41 98/254/41 96/255/41
f 96/256/42 98/257/42 97/258/42 95/259/42
f 111/260/3 96/261/3 95/262/3 110/263/3
f 103/264/4 101/72/4 100/71/4 118/265/4
f 107/266/43 118/267/43 100/75/43 102/74/43
f 95/268/44 97/269/44 115/270/44 110/271/44
f 110/271/45 115/270/45 116/272/45 109/273/45
f 109/273/46 116/272/46 117/274/46 108/275/46
f 108/275/47 117/274/47 118/267/47 107/266/47
f 98/276/4 106/277/4 115/278/4 97/279/4
f 106/277/4 105/280/4 116/281/4 115/278/4
f 105/280/4 104/282/4 117/283/4 116/281/4
f 104/282/4 103/264/4 118/265/4 117/283/4
f 99/93/3 114/284/3 107/285/3 102/94/3
f 114/284/3 113/286/3 108/287/3 107/285/3
f 113/286/3 112/288/3 109/289/3 108/287/3
f 112/288/3 111/260/3 110/263/3 109/289/3
f 99/101/48 101/104/48 103/290/48 114/291/48
f 114/291/49 103/290/49 104/292/49 113/293/49
f 113/293/50 104/292/50 105/294/50 112/295/50
f 112/295/51 105/294/51 106/253/51 111/252/51
f 143/363/30 145/364/30 146/365/30 144/366/30
f 145/367/29 149/368/29 150/369/29 146/370/29
f 149/371/28 147/372/28 148/373/28 150/374/28
f 147/375/31 143/376/31 144/377/31 148/378/31
f 145/379/24 143/380/24 147/381/24 149/382/24
f 150/383/26 148/384/26 144/385/26 146/386/26
